# Blender 3.6.4
# www.blender.org
mtllib wizcat.mtl
o flamesprite.001
v 34.757145 2.430498 -57.058468
v 34.430077 2.430498 -56.113468
v 34.757141 3.430498 -57.058468
v 34.430077 3.430498 -56.113468
v 35.066109 2.430498 -56.422432
v 34.121109 2.430498 -56.749500
v 35.066109 3.430498 -56.422436
v 34.121109 3.430498 -56.749500
vn -0.9450 -0.0000 -0.3271
vn 0.3271 -0.0000 -0.9450
vt 0.000000 0.000000
vt 1.000000 0.000000
vt 1.000000 1.000000
vt 0.000000 1.000000
s 0
usemtl flamesprite
f 1/1/1 2/2/1 4/3/1 3/4/1
f 5/1/2 6/2/2 8/3/2 7/4/2
o flamesprite.002
v 37.803326 3.407310 -56.246346
v 37.476257 3.407310 -55.301342
v 37.803326 4.407309 -56.246346
v 37.476257 4.407309 -55.301342
v 38.112293 3.407310 -55.610310
v 37.167290 3.407310 -55.937378
v 38.112293 4.407309 -55.610310
v 37.167290 4.407309 -55.937378
vn -0.9450 -0.0000 -0.3271
vn 0.3271 -0.0000 -0.9450
vt 0.000000 0.000000
vt 1.000000 0.000000
vt 1.000000 1.000000
vt 0.000000 1.000000
s 0
usemtl flamesprite
f 9/5/3 10/6/3 12/7/3 11/8/3
f 13/5/4 14/6/4 16/7/4 15/8/4
o flamesprite.003
v 34.858780 3.348582 -55.140312
v 34.531712 3.348582 -54.195309
v 34.858780 4.348582 -55.140312
v 34.531712 4.348582 -54.195309
v 35.167747 3.348582 -54.504276
v 34.222748 3.348582 -54.831345
v 35.167747 4.348582 -54.504276
v 34.222748 4.348582 -54.831345
vn -0.9450 -0.0000 -0.3271
vn 0.3271 -0.0000 -0.9450
vt 0.000000 0.000000
vt 1.000000 0.000000
vt 1.000000 1.000000
vt 0.000000 1.000000
s 0
usemtl flamesprite
f 17/9/5 18/10/5 20/11/5 19/12/5
f 21/9/6 22/10/6 24/11/6 23/12/6
o NurbsPath
v 36.704689 4.025499 -56.521351
v 36.557777 4.025499 -56.654716
v 36.732388 4.219589 -56.551865
v 36.585480 4.219589 -56.685230
v 36.435783 4.059958 -56.738018
v 36.243225 4.063244 -56.785767
v 36.445831 4.256272 -56.765026
v 36.253273 4.259558 -56.812771
vn 0.6575 -0.2077 -0.7243
vn 0.2358 -0.1443 -0.9610
vt 0.003337 0.003337
vt 0.996663 0.003337
vt 0.996663 0.996663
vt 0.003337 0.996663
s 0
usemtl cateye
f 25/13/7 26/14/7 28/15/7 27/16/7
f 29/13/8 30/14/8 32/15/8 31/16/8
o NurbsPath.001
v 35.827660 2.210112 -55.562141
v 35.933819 2.287519 -55.572819
v 35.843594 2.372640 -55.591530
v 35.768723 2.287518 -55.537815
v 36.018856 2.504493 -55.045048
v 36.016224 2.524064 -55.168930
v 35.953747 2.632654 -55.162518
v 35.956379 2.613083 -55.038635
v 36.615078 2.695165 -55.583179
v 36.568993 2.673258 -55.697777
v 36.464859 2.741396 -55.681969
v 36.510948 2.763303 -55.567375
v 36.643166 3.169994 -55.527645
v 36.600456 3.197499 -55.635017
v 36.485069 3.158843 -55.624317
v 36.525330 3.131338 -55.508736
v 36.546783 3.344021 -55.628185
v 35.751202 3.714423 -56.258091
v 36.508934 3.569605 -56.300415
v 36.163631 3.646691 -55.936890
v 36.144291 5.201067 -55.993504
v 36.670994 5.092065 -56.371147
v 37.431484 4.043755 -56.285580
v 35.801491 4.384880 -57.586880
v 35.718246 4.604152 -55.222549
v 36.735542 4.565568 -56.348934
v 36.050415 4.723231 -55.933270
v 36.087856 4.663618 -56.742393
v 36.685226 4.492413 -56.421066
v 36.767456 4.308015 -56.282467
v 36.663097 4.298603 -56.617443
v 36.222111 4.028227 -55.864887
v 36.299530 3.814280 -56.060436
v 36.524082 3.996514 -55.957779
v 36.587894 3.957013 -56.563953
v 36.682453 3.965541 -56.260445
v 36.449936 3.784851 -56.347889
v 36.592667 4.341927 -55.948418
v 36.407177 4.605958 -56.070515
v 36.259388 4.376927 -55.845894
v 36.162392 3.801664 -56.500618
v 35.983158 4.006428 -56.631874
v 36.285130 3.974715 -56.724766
v 36.169548 4.578502 -56.656193
v 36.328941 4.318140 -56.794930
v 35.995659 4.353141 -56.692406
v 35.824791 4.037153 -56.329208
v 36.011986 3.830845 -56.213165
v 35.919346 4.045929 -56.025700
v 35.820869 4.387052 -56.358360
v 35.925232 4.396465 -56.023380
v 36.056465 4.626463 -56.256794
v 36.249966 5.155803 -56.626915
v 36.065407 5.644766 -56.367393
v 36.926685 2.200822 -56.037029
v 34.814171 2.200822 -56.022270
v 35.738792 2.601708 -55.254021
v 35.436054 4.414697 -56.131908
v 36.989223 3.883867 -56.636250
v 36.465652 4.334971 -55.437160
v 36.862911 4.354354 -56.351006
v 36.847534 4.771761 -56.482136
v 36.602798 4.501728 -56.246147
v 36.145798 4.859626 -56.882111
v 36.549942 4.459189 -56.555614
v 36.371853 4.472740 -56.687351
v 36.018421 4.412867 -56.836700
v 36.091507 4.537760 -56.554863
v 36.218380 3.623874 -56.637562
v 36.050659 4.107224 -57.058365
v 36.161739 2.200822 -57.039932
v 35.788635 2.842842 -55.604122
v 35.530914 2.200822 -55.604271
v 35.959049 2.200822 -55.434464
v 36.386711 3.592433 -56.442238
v 36.572948 2.200822 -56.500809
v 36.660816 2.057169 -56.597603
v 36.483246 3.876884 -56.903332
v 36.448498 3.929938 -56.732586
vn -0.6501 -0.5165 0.5574
vn 0.7653 -0.6292 0.1354
vn 0.7050 0.5255 -0.4763
vn -0.8580 0.5115 -0.0474
vn 0.5454 0.4232 0.7235
vn 0.2480 -0.9679 -0.0412
vn -0.5691 -0.4500 -0.6882
vn -0.2058 0.9781 0.0325
vn 0.1349 -0.1397 0.9810
vn 0.9283 -0.0113 -0.3716
vn -0.1014 0.1317 -0.9861
vn -0.9363 -0.0107 0.3510
vn -0.0961 0.0112 -0.9953
vn 0.8999 0.3423 -0.2703
vn -0.0214 0.4912 0.8708
vn -0.8764 0.3000 0.3767
vn -0.5641 -0.3438 0.7508
vn -0.8870 -0.0482 -0.4592
vn -0.7949 -0.0811 -0.6013
vn 0.7806 0.1359 -0.6101
vn -0.9209 0.3697 0.1235
vn 0.4455 -0.2334 -0.8643
vn 0.6198 -0.5715 0.5378
vn -0.7550 -0.4310 -0.4941
vn 0.4968 0.7228 -0.4803
vn -0.0873 -0.9946 0.0557
vn -0.4690 0.0020 0.8832
vn 0.8631 -0.1840 0.4704
vn 0.9351 0.1939 -0.2968
vn 0.1666 -0.6317 0.7571
vn 0.6449 -0.7428 -0.1800
vn 0.2963 0.5644 0.7705
vn -0.2799 -0.6797 -0.6780
vn -0.2447 0.3350 -0.9099
vn -0.7834 -0.5644 0.2604
vn -0.7401 0.6381 0.2126
vn -0.9548 0.0141 0.2971
vn 0.7097 0.6191 0.3361
vn -0.2712 0.7575 0.5939
vn -0.3679 -0.6962 0.6165
vn 0.9268 -0.2482 -0.2818
vn 0.4938 -0.8002 0.3403
vn 0.2851 -0.0825 0.9549
vn -0.6378 -0.7250 -0.2601
vn -0.6563 0.6770 -0.3332
vn -0.3052 -0.1531 -0.9399
vn 0.2253 -0.8270 -0.5151
vn 0.4039 0.6190 -0.6735
vn 0.1775 0.9770 -0.1178
vn -0.2648 -0.9610 0.0798
vn 0.4847 0.7719 0.4113
vn -0.5240 0.8465 -0.0943
vn 0.5221 0.0280 -0.8524
vn 0.5550 0.0520 0.8303
vn -0.9590 0.2596 -0.1140
vn -0.9486 -0.2849 -0.1379
vn 0.5462 0.5944 0.5902
vn 0.4939 0.5457 -0.6770
vn -0.3132 -0.5275 0.7897
vn 0.2697 0.9338 -0.2350
vn 0.4903 0.2776 0.8261
vn -0.4517 -0.5975 -0.6626
vn -0.7274 0.6855 0.0300
vn 0.4703 -0.2487 -0.8468
vn 0.9513 -0.2835 -0.1210
vn -0.4104 0.2073 0.8880
vn 0.0567 -0.7507 -0.6582
vn -0.5844 0.2417 -0.7747
vn -0.0000 -1.0000 -0.0000
vn -0.5498 0.4212 0.7214
vn 0.8787 0.3255 0.3493
vn -0.5925 -0.6669 0.4519
vn 0.8468 0.1832 -0.4994
vn 0.5321 0.2635 0.8046
vn 0.1541 -0.7482 -0.6454
vn 0.9795 -0.0062 0.2013
vn 0.5079 0.8465 -0.1596
vt 0.058500 0.261707
vt 0.062409 0.190067
vt 0.071526 0.189453
vt 0.073024 0.255879
vt 0.043345 0.253625
vt 0.050659 0.192134
vt 0.087199 0.252658
vt 0.080951 0.189740
vt 0.095882 0.190770
vt 0.103487 0.252053
vt 0.049592 0.089818
vt 0.068943 0.090277
vt 0.034088 0.089720
vt 0.087924 0.087503
vt 0.103487 0.084522
vt 0.055594 0.039765
vt 0.064033 0.041887
vt 0.044680 0.030483
vt 0.073030 0.036951
vt 0.082322 0.025157
vt 0.061924 0.015637
vt 0.755983 0.279819
vt 0.755983 0.494661
vt 0.650557 0.494661
vt 0.650557 0.279819
vt 0.273586 0.205833
vt 0.308445 0.205833
vt 0.308445 0.240692
vt 0.273586 0.240692
vt 0.983943 0.663988
vt 0.983943 0.735702
vt 0.756026 0.735702
vt 0.983943 0.162189
vt 0.755983 0.162189
vt 0.755983 0.020673
vt 0.983943 0.020673
vt 0.952007 0.494661
vt 0.883414 0.494661
vt 0.983943 0.459258
vt 0.273586 0.286348
vt 0.308445 0.286348
vt 0.308445 0.321207
vt 0.273586 0.321207
vt 0.755983 0.581513
vt 0.650557 0.581513
vt 0.650557 0.162189
vt 0.328549 0.815081
vt 0.221502 0.815081
vt 0.133374 0.689048
vt 0.430947 0.704044
vt 0.193071 0.205833
vt 0.227931 0.205833
vt 0.227931 0.240692
vt 0.193071 0.240692
vt 0.273586 0.044803
vt 0.308445 0.044803
vt 0.308445 0.079662
vt 0.273586 0.079662
vt 0.273586 0.125318
vt 0.308445 0.125318
vt 0.308445 0.160177
vt 0.273586 0.160177
vt 0.331273 0.125318
vt 0.308445 0.102490
vt 0.250758 0.044803
vt 0.273586 0.021975
vt 0.273586 0.102490
vt 0.250758 0.125318
vt 0.331273 0.160177
vt 0.308445 0.183005
vt 0.250758 0.240692
vt 0.227931 0.263520
vt 0.331273 0.286348
vt 0.308445 0.263520
vt 0.250758 0.205833
vt 0.227931 0.183005
vt 0.331273 0.079662
vt 0.331273 0.044803
vt 0.250758 0.079662
vt 0.250758 0.160177
vt 0.308445 0.021975
vt 0.354101 0.205833
vt 0.354101 0.240692
vt 0.193071 0.263520
vt 0.331273 0.321207
vt 0.388960 0.205833
vt 0.388960 0.240692
vt 0.253839 0.419741
vt 0.116259 0.815081
vt 0.012639 0.761484
vt 0.103218 0.692926
vt 0.420307 0.815081
vt 0.455773 0.702265
vt 0.519768 0.767156
vt 0.328549 0.901445
vt 0.221502 0.901445
vt 0.116259 0.901445
vt 0.420307 0.901445
vt 0.372824 0.979859
vt 0.170802 0.979859
vt 0.273834 0.979859
vt 0.983943 0.523751
vt 0.811291 0.775483
vt 0.907809 0.775483
vt 0.994510 0.775483
vt 0.994510 0.970681
vt 0.811291 0.970681
vt 0.220838 0.020852
vt 0.171778 0.053211
vt 0.122655 0.020852
vt 0.182356 0.197163
vt 0.180383 0.135476
vt 0.235445 0.111100
vt 0.161414 0.111061
vt 0.122655 0.111100
vt 0.650557 0.114765
vt 0.983943 0.279819
vt 0.717670 0.775483
vt 0.717670 0.970681
vt 0.626724 0.970681
vt 0.555348 0.970681
vt 0.555348 0.775483
vt 0.614991 0.775483
vt 0.630023 0.994966
vt 0.983943 0.581513
vt 0.650557 0.735702
vt 0.650557 0.020673
vt 0.909429 0.741007
s 0
usemtl Material.022
f 33/17/9 37/18/9 40/19/9 36/20/9
f 34/21/10 38/22/10 37/18/10 33/17/10
f 35/23/11 39/24/11 38/25/11 34/26/11
f 36/20/12 40/19/12 39/24/12 35/23/12
f 37/18/13 41/27/13 44/28/13 40/19/13
f 38/22/14 42/29/14 41/27/14 37/18/14
f 39/24/15 43/30/15 42/31/15 38/25/15
f 40/19/16 44/28/16 43/30/16 39/24/16
f 41/27/17 45/32/17 48/33/17 44/28/17
f 42/29/18 46/34/18 45/32/18 41/27/18
f 43/30/19 47/35/19 46/36/19 42/31/19
f 44/28/20 48/33/20 47/35/20 43/30/20
f 46/36/21 47/35/21 49/37/21
f 45/32/22 46/34/22 49/37/22
f 48/33/23 45/32/23 49/37/23
f 47/35/24 48/33/24 49/37/24
f 50/38/25 52/39/25 92/40/25 90/41/25
f 79/42/26 82/43/26 78/44/26 74/45/26
f 109/46/27 108/47/27 107/48/27
f 103/49/28 101/50/28 107/51/28 108/52/28
f 89/53/29 104/54/29 105/55/29
f 75/56/30 77/57/30 63/58/30 67/59/30
f 52/39/31 51/60/31 91/61/31 92/40/31
f 101/50/32 50/38/32 90/41/32 102/62/32
f 60/63/33 58/64/33 55/65/33 56/66/33
f 65/67/34 80/68/34 73/69/34 69/70/34
f 64/71/35 72/72/35 83/73/35 81/74/35
f 68/75/36 62/76/36 70/77/36 66/78/36
f 61/79/37 62/79/37 63/80/37
f 64/71/38 65/81/38 66/82/38
f 67/83/39 68/84/39 69/84/39
f 70/77/40 71/85/40 72/86/40
f 73/69/41 74/87/41 75/88/41
f 76/89/42 77/89/42 78/90/42
f 79/91/43 80/91/43 81/92/43
f 82/80/44 83/93/44 84/93/44
f 82/80/45 79/83/45 81/74/45 83/73/45
f 61/79/46 71/85/46 70/77/46 62/76/46
f 71/94/47 84/93/47 83/73/47 72/72/47
f 80/95/48 65/81/48 64/71/48 81/74/48
f 67/83/49 63/80/49 62/76/49 68/75/49
f 65/96/50 69/84/50 68/75/50 66/78/50
f 72/72/51 64/71/51 66/82/51 70/97/51
f 73/69/52 80/68/52 79/42/52 74/45/52
f 84/98/53 76/99/53 78/44/53 82/43/53
f 77/57/54 75/56/54 74/45/54 78/44/54
f 69/70/55 73/69/55 75/88/55 67/100/55
f 76/89/56 61/101/56 63/58/56 77/57/56
f 84/98/57 71/102/57 61/103/57 76/99/57
f 56/66/58 55/65/58 57/104/58
f 58/64/59 59/105/59 57/106/59 55/107/59
f 59/108/60 60/63/60 56/109/60 57/110/60
f 58/64/61 60/63/61 85/111/61 54/112/61
f 59/105/62 58/64/62 54/112/62 53/113/62
f 60/63/63 59/108/63 53/114/63 85/111/63
f 85/111/64 53/114/64 86/115/64
f 53/113/65 54/112/65 86/116/65
f 54/112/66 85/111/66 86/117/66
f 105/55/67 106/118/67 89/53/67
f 91/119/68 111/120/68 102/121/68 90/122/68 92/123/68
f 93/124/69 94/125/69 95/126/69
f 100/127/70 96/128/70 98/129/70
f 95/126/71 94/125/71 97/130/71
f 97/130/72 94/125/72 93/124/72
f 99/131/73 96/128/73 100/127/73
f 98/129/74 96/128/74 99/131/74
f 107/51/75 101/50/75 102/62/75 110/132/75
f 88/133/76 50/38/76 101/50/76 103/49/76
f 88/134/77 103/135/77 108/136/77 87/137/77 106/138/77 105/139/77
f 105/55/78 104/54/78 52/39/78 50/38/78 88/133/78
f 106/118/79 104/54/79 89/53/79
f 109/140/80 87/137/80 108/136/80
f 109/46/81 107/48/81 51/60/81 87/141/81
f 87/141/82 51/60/82 52/39/82 104/54/82 106/118/82
f 51/60/83 107/48/83 111/142/83 91/61/83
f 110/132/84 111/143/84 107/51/84
f 110/144/85 102/121/85 111/120/85
